PathFileType	4	(X/Y/Z)	C:\Users\italobelli\Desktop\GitHub\PTbot_officialCBL\Personal_Results\ABD23_noisy1.trc
DataRate	CameraRate	NumFrames	NumMarkers	Units	OrigDataRate	OrigDataStartFrame	OrigNumFrames
105.444444	105.444444	42	9	m	105.444444	594	950
Frame#	Time		gu		centelbow		EpL		centpxt8		centijc7		ij		ts		aa		ai
			X1	Y1	Z1	X2	Y2	Z2	X3	Y3	Z3	X4	Y4	Z4	X5	Y5	Z5	X6	Y6	Z6	X7	Y7	Z7	X8	Y8	Z8	X9	Y9	Z9

594	5.6238	-0.098008	0.020091	0.15261	-0.066998	-0.13556	0.34298	-0.074059	-0.10944	0.35913	-0.046816	-0.15316	-0.008669	-0.046816	0.031938	-0.008669	0	0	0	-0.12969	0.023407	0.026967	-0.1344	0.038411	0.14531	-0.13497	-0.08843	0.046521
595	5.6333	-0.097987	0.019378	0.15293	-0.067792	-0.13893	0.34092	-0.074767	-0.11302	0.35738	-0.046816	-0.15316	-0.008669	-0.046816	0.031938	-0.008669	0	0	0	-0.12964	0.023625	0.027127	-0.13434	0.038096	0.14553	-0.13505	-0.088294	0.046178
596	5.6428	-0.097967	0.018659	0.15324	-0.068603	-0.1423	0.3388	-0.075492	-0.1166	0.35557	-0.046816	-0.15316	-0.008669	-0.046816	0.031938	-0.008669	0	0	0	-0.12959	0.023841	0.027288	-0.13428	0.037782	0.14576	-0.13514	-0.088156	0.045837
597	5.6523	-0.097946	0.017936	0.15355	-0.069428	-0.14566	0.33662	-0.076233	-0.12018	0.35372	-0.046816	-0.15316	-0.008669	-0.046816	0.031938	-0.008669	0	0	0	-0.12954	0.024055	0.02745	-0.13423	0.037471	0.14598	-0.13524	-0.088017	0.045499
598	5.6617	-0.097926	0.017208	0.15386	-0.070268	-0.14902	0.33439	-0.076988	-0.12377	0.35182	-0.046816	-0.15316	-0.008669	-0.046816	0.031938	-0.008669	0	0	0	-0.12949	0.024266	0.027614	-0.13417	0.037161	0.1462	-0.13533	-0.087877	0.045165
599	5.6712	-0.097906	0.016477	0.15417	-0.071119	-0.15237	0.33212	-0.077756	-0.12734	0.34988	-0.046816	-0.15316	-0.008669	-0.046816	0.031938	-0.008669	0	0	0	-0.12944	0.024475	0.027779	-0.13411	0.036854	0.14642	-0.13543	-0.087736	0.044834
600	5.6807	-0.097887	0.015744	0.15446	-0.071982	-0.1557	0.3298	-0.078536	-0.1309	0.34789	-0.046816	-0.15316	-0.008669	-0.046816	0.031938	-0.008669	0	0	0	-0.12939	0.024681	0.027944	-0.13406	0.036549	0.14664	-0.13554	-0.087594	0.044508
601	5.6902	-0.097868	0.01501	0.15476	-0.072855	-0.15902	0.32745	-0.079327	-0.13445	0.34587	-0.046816	-0.15316	-0.008669	-0.046816	0.031938	-0.008669	0	0	0	-0.12935	0.024884	0.02811	-0.134	0.036247	0.14685	-0.13564	-0.087453	0.044186
602	5.6997	-0.097849	0.014276	0.15505	-0.073737	-0.16231	0.32505	-0.080127	-0.13798	0.34382	-0.046816	-0.15316	-0.008669	-0.046816	0.031938	-0.008669	0	0	0	-0.1293	0.025084	0.028276	-0.13395	0.035949	0.14707	-0.13575	-0.087311	0.043869
603	5.7092	-0.09783	0.013544	0.15534	-0.074626	-0.16557	0.32263	-0.080935	-0.14149	0.34174	-0.046816	-0.15316	-0.008669	-0.046816	0.031938	-0.008669	0	0	0	-0.12925	0.02528	0.028443	-0.13389	0.035653	0.14727	-0.13586	-0.087169	0.043556
604	5.7187	-0.097811	0.012813	0.15562	-0.075521	-0.16881	0.32018	-0.08175	-0.14497	0.33963	-0.046816	-0.15316	-0.008669	-0.046816	0.031938	-0.008669	0	0	0	-0.12921	0.025473	0.02861	-0.13384	0.035361	0.14748	-0.13598	-0.087028	0.04325
605	5.7281	-0.097793	0.012086	0.15589	-0.076422	-0.172	0.3177	-0.082571	-0.14842	0.3375	-0.046816	-0.15316	-0.008669	-0.046816	0.031938	-0.008669	0	0	0	-0.12916	0.025663	0.028776	-0.13378	0.035073	0.14769	-0.13609	-0.086887	0.042949
606	5.7376	-0.097775	0.011363	0.15617	-0.077326	-0.17516	0.3152	-0.083395	-0.15183	0.33535	-0.046816	-0.15316	-0.008669	-0.046816	0.031938	-0.008669	0	0	0	-0.12912	0.025849	0.028943	-0.13373	0.034789	0.14789	-0.13621	-0.086747	0.042654
607	5.7471	-0.097757	0.010645	0.15643	-0.078232	-0.17828	0.31268	-0.084223	-0.1552	0.33318	-0.046816	-0.15316	-0.008669	-0.046816	0.031938	-0.008669	0	0	0	-0.12908	0.02603	0.029108	-0.13367	0.034509	0.14808	-0.13633	-0.086608	0.042365
608	5.7566	-0.097739	0.009933	0.15669	-0.079139	-0.18135	0.31015	-0.085052	-0.15853	0.33099	-0.046816	-0.15316	-0.008669	-0.046816	0.031938	-0.008669	0	0	0	-0.12904	0.026208	0.029273	-0.13362	0.034234	0.14828	-0.13645	-0.08647	0.042083
609	5.7661	-0.097722	0.0092286	0.15694	-0.080047	-0.18437	0.30761	-0.085882	-0.16181	0.3288	-0.046816	-0.15316	-0.008669	-0.046816	0.031938	-0.008669	0	0	0	-0.129	0.026381	0.029438	-0.13356	0.033964	0.14847	-0.13657	-0.086334	0.041809
610	5.7756	-0.097705	0.0085324	0.15719	-0.080953	-0.18733	0.30506	-0.086711	-0.16504	0.32659	-0.046816	-0.15316	-0.008669	-0.046816	0.031938	-0.008669	0	0	0	-0.12895	0.026549	0.029601	-0.13351	0.033698	0.14866	-0.13669	-0.0862	0.041542
611	5.785	-0.097688	0.0078457	0.15743	-0.081856	-0.19024	0.30251	-0.087538	-0.16821	0.32438	-0.046816	-0.15316	-0.008669	-0.046816	0.031938	-0.008669	0	0	0	-0.12891	0.026713	0.029763	-0.13345	0.033438	0.14884	-0.13681	-0.086067	0.041282
612	5.7945	-0.097671	0.0071693	0.15766	-0.082756	-0.19308	0.29996	-0.088361	-0.17132	0.32217	-0.046816	-0.15316	-0.008669	-0.046816	0.031938	-0.008669	0	0	0	-0.12888	0.026872	0.029923	-0.1334	0.033183	0.14902	-0.13694	-0.085937	0.041031
613	5.804	-0.097654	0.0065043	0.15788	-0.08365	-0.19586	0.29741	-0.08918	-0.17437	0.31996	-0.046816	-0.15316	-0.008669	-0.046816	0.031938	-0.008669	0	0	0	-0.12884	0.027026	0.030083	-0.13334	0.032934	0.1492	-0.13706	-0.085809	0.040788
614	5.8135	-0.097638	0.0058518	0.1581	-0.084538	-0.19856	0.29487	-0.089993	-0.17734	0.31776	-0.046816	-0.15316	-0.008669	-0.046816	0.031938	-0.008669	0	0	0	-0.1288	0.027174	0.03024	-0.13329	0.03269	0.14938	-0.13718	-0.085683	0.040554
615	5.823	-0.097621	0.0052127	0.15831	-0.085419	-0.20119	0.29235	-0.090798	-0.18025	0.31556	-0.046816	-0.15316	-0.008669	-0.046816	0.031938	-0.008669	0	0	0	-0.12876	0.027318	0.030395	-0.13324	0.032453	0.14955	-0.1373	-0.085561	0.040329
616	5.8325	-0.097605	0.0045882	0.15851	-0.08629	-0.20374	0.28983	-0.091595	-0.18307	0.31337	-0.046816	-0.15316	-0.008669	-0.046816	0.031938	-0.008669	0	0	0	-0.12873	0.027455	0.030548	-0.13318	0.032223	0.14971	-0.13742	-0.085442	0.040113
617	5.8419	-0.097589	0.0039792	0.15871	-0.087151	-0.20621	0.28734	-0.092383	-0.18582	0.3112	-0.046816	-0.15316	-0.008669	-0.046816	0.031938	-0.008669	0	0	0	-0.12869	0.027587	0.030699	-0.13313	0.031999	0.14988	-0.13754	-0.085325	0.039907
618	5.8514	-0.097574	0.0033867	0.15889	-0.088001	-0.20859	0.28487	-0.093159	-0.18848	0.30904	-0.046816	-0.15316	-0.008669	-0.046816	0.031938	-0.008669	0	0	0	-0.12866	0.027713	0.030848	-0.13307	0.031782	0.15003	-0.13766	-0.085213	0.039711
619	5.8609	-0.097558	0.0028119	0.15907	-0.088839	-0.21088	0.28243	-0.093923	-0.19105	0.3069	-0.046816	-0.15316	-0.008669	-0.046816	0.031938	-0.008669	0	0	0	-0.12862	0.027832	0.030993	-0.13301	0.031572	0.15019	-0.13777	-0.085104	0.039526
620	5.8704	-0.097543	0.0022557	0.15923	-0.089662	-0.21307	0.28002	-0.094673	-0.19353	0.30479	-0.046816	-0.15316	-0.008669	-0.046816	0.031938	-0.008669	0	0	0	-0.12859	0.027946	0.031136	-0.13296	0.031369	0.15034	-0.13789	-0.084999	0.039352
621	5.8799	-0.097527	0.0017192	0.15939	-0.09047	-0.21517	0.27764	-0.095409	-0.1959	0.3027	-0.046816	-0.15316	-0.008669	-0.046816	0.031938	-0.008669	0	0	0	-0.12855	0.028053	0.031276	-0.1329	0.031174	0.15048	-0.138	-0.084899	0.039188
622	5.8894	-0.097512	0.0012034	0.15954	-0.091262	-0.21716	0.2753	-0.096128	-0.19818	0.30064	-0.046816	-0.15316	-0.008669	-0.046816	0.031938	-0.008669	0	0	0	-0.12852	0.028153	0.031413	-0.13284	0.030987	0.15063	-0.13811	-0.084803	0.039036
623	5.8988	-0.097497	0.00070925	0.15968	-0.092036	-0.21905	0.27299	-0.09683	-0.20035	0.29862	-0.046816	-0.15316	-0.008669	-0.046816	0.031938	-0.008669	0	0	0	-0.12849	0.028246	0.031546	-0.13279	0.030808	0.15076	-0.13821	-0.084711	0.038896
624	5.9083	-0.097482	0.00023791	0.15981	-0.092791	-0.22083	0.27074	-0.097513	-0.20241	0.29663	-0.046816	-0.15316	-0.008669	-0.046816	0.031938	-0.008669	0	0	0	-0.12846	0.028332	0.031676	-0.13273	0.030637	0.15089	-0.13832	-0.084625	0.038768
625	5.9178	-0.097468	-0.00020963	0.15993	-0.093526	-0.22249	0.26853	-0.098177	-0.20436	0.29468	-0.046816	-0.15316	-0.008669	-0.046816	0.031938	-0.008669	0	0	0	-0.12843	0.028411	0.031802	-0.13267	0.030475	0.15102	-0.13842	-0.084543	0.038653
626	5.9273	-0.097453	-0.00063235	0.16004	-0.094239	-0.22403	0.26637	-0.098819	-0.20618	0.29277	-0.046816	-0.15316	-0.008669	-0.046816	0.031938	-0.008669	0	0	0	-0.1284	0.028483	0.031924	-0.13261	0.030322	0.15114	-0.13851	-0.084467	0.03855
627	5.9368	-0.097439	-0.0010292	0.16013	-0.09493	-0.22545	0.26427	-0.099438	-0.20789	0.2909	-0.046816	-0.15316	-0.008669	-0.046816	0.031938	-0.008669	0	0	0	-0.12837	0.028547	0.032042	-0.13255	0.030178	0.15126	-0.1386	-0.084397	0.03846
628	5.9463	-0.097424	-0.0013992	0.16022	-0.095596	-0.22674	0.26223	-0.10003	-0.20946	0.28909	-0.046816	-0.15316	-0.008669	-0.046816	0.031938	-0.008669	0	0	0	-0.12834	0.028604	0.032156	-0.13249	0.030043	0.15137	-0.13869	-0.084332	0.038384
629	5.9557	-0.09741	-0.0017412	0.1603	-0.096238	-0.2279	0.26026	-0.10061	-0.21091	0.28732	-0.046816	-0.15316	-0.008669	-0.046816	0.031938	-0.008669	0	0	0	-0.12831	0.028652	0.032265	-0.13243	0.029917	0.15148	-0.13878	-0.084273	0.038322
630	5.9652	-0.097396	-0.0020543	0.16036	-0.096853	-0.22893	0.25835	-0.10115	-0.21222	0.28561	-0.046816	-0.15316	-0.008669	-0.046816	0.031938	-0.008669	0	0	0	-0.12829	0.028693	0.032369	-0.13237	0.029802	0.15158	-0.13885	-0.084221	0.038274
631	5.9747	-0.097382	-0.0023375	0.16041	-0.09744	-0.22981	0.25651	-0.10167	-0.21339	0.28396	-0.046816	-0.15316	-0.008669	-0.046816	0.031938	-0.008669	0	0	0	-0.12826	0.028725	0.032469	-0.13231	0.029696	0.15168	-0.13893	-0.084175	0.03824
632	5.9842	-0.097368	-0.0025896	0.16045	-0.097998	-0.23056	0.25474	-0.10215	-0.21442	0.28236	-0.046816	-0.15316	-0.008669	-0.046816	0.031938	-0.008669	0	0	0	-0.12823	0.028749	0.032564	-0.13225	0.029601	0.15177	-0.139	-0.084136	0.038221
633	5.9937	-0.097354	-0.0028096	0.16048	-0.098526	-0.23116	0.25305	-0.10261	-0.2153	0.28083	-0.046816	-0.15316	-0.008669	-0.046816	0.031938	-0.008669	0	0	0	-0.12821	0.028764	0.032653	-0.13218	0.029516	0.15186	-0.13906	-0.084104	0.038217
634	6.0032	-0.09734	-0.0029983	0.16049	-0.099023	-0.23161	0.25144	-0.10304	-0.21603	0.27936	-0.046816	-0.15316	-0.008669	-0.046816	0.031938	-0.008669	0	0	0	-0.12818	0.028771	0.032738	-0.13212	0.029441	0.15194	-0.13912	-0.084078	0.038228
635	6.0126	-0.097327	-0.0031772	0.16051	-0.099511	-0.23203	0.24982	-0.10346	-0.21673	0.27789	-0.046816	-0.15316	-0.008669	-0.046816	0.031938	-0.008669	0	0	0	-0.12816	0.028774	0.03282	-0.13205	0.029369	0.15202	-0.13917	-0.084057	0.038243
